<?xml version="1.0" encoding="UTF-8" standalone="no"?>
<!DOCTYPE svg PUBLIC "-//W3C//DTD SVG 1.1//EN" "http://www.w3.org/Graphics/SVG/1.1/DTD/svg11.dtd">
<svg width="100%" height="100%" viewBox="0 0 1200 1200" version="1.1" xmlns="http://www.w3.org/2000/svg" xmlns:xlink="http://www.w3.org/1999/xlink" xml:space="preserve" xmlns:serif="http://www.serif.com/" style="fill-rule:evenodd;clip-rule:evenodd;stroke-linejoin:round;stroke-miterlimit:2;">
    <path d="M366.52,281.95C343.317,281.95 322.223,291.513 307.036,306.841C306.849,306.982 306.708,307.122 306.567,307.263C306.474,307.404 306.38,307.544 306.286,307.638C291.848,322.638 282.895,342.935 282.895,365.294L282.895,442.263C282.895,446.81 284.676,451.216 287.911,454.451C291.145,457.686 295.551,459.466 300.099,459.466C304.645,459.42 309.005,457.638 312.193,454.404C315.427,451.17 317.208,446.81 317.161,442.263L317.161,365.341C317.161,358.075 318.755,351.279 321.474,345.138L619.504,628.448C674.02,680.245 757.454,680.245 811.974,628.448L1110,345.138C1112.72,351.279 1114.32,358.122 1114.32,365.341L1114.32,834.701C1114.32,862.17 1092.61,883.779 1064.96,883.779L366.517,883.779C338.908,883.779 317.158,862.17 317.158,834.701L317.158,757.732C317.158,748.31 309.518,740.67 300.096,740.623C295.549,740.623 291.19,742.404 287.955,745.639C284.721,748.826 282.893,753.185 282.893,757.733L282.893,834.655C282.893,880.593 320.534,918.046 366.518,918.046L1064.96,918.046C1110.94,918.046 1148.58,880.593 1148.58,834.655L1148.58,365.295C1148.58,343.404 1140.01,323.483 1126.08,308.576C1125.71,308.107 1125.33,307.685 1124.91,307.263C1124.77,307.169 1124.68,307.076 1124.54,306.982C1109.35,291.56 1088.21,281.951 1064.96,281.951L366.52,281.95ZM366.52,316.216L1064.96,316.216C1072.51,316.216 1079.54,317.904 1085.87,320.763L788.346,603.553C746.205,643.584 685.316,643.584 643.216,603.553L345.656,320.763C351.984,317.857 359.015,316.216 366.562,316.216L366.52,316.216Z" style="fill-rule:nonzero;"/>
    <g transform="matrix(0.847086,0,0,0.847086,36.3898,89.653)">
        <g transform="matrix(0.232509,0.232509,-0.232509,0.232509,244.506,319.779)">
            <path d="M1106.3,93.73C981.32,-31.22 778.71,-31.22 653.76,93.73L475.21,272.21C489.347,270.671 503.628,270.011 517.983,270.011C563.171,270.011 607.112,277.191 648.713,291.031L749.893,189.891C784.643,155.102 830.858,135.989 880.003,135.989C929.151,135.989 975.366,155.106 1010.11,189.891C1044.87,224.606 1063.98,270.746 1063.98,319.961C1063.98,369.106 1044.87,415.32 1010.11,450.031L812.153,648.001C777.399,682.79 731.184,701.899 682.043,701.899C632.824,701.899 586.684,682.79 551.903,647.997C534.985,631.149 521.801,611.52 512.719,590.134C490.16,591.38 469.071,600.755 452.957,616.864L400.227,669.665C414.657,696.395 433.184,721.591 455.743,744.227C580.693,869.177 783.333,869.177 908.313,744.227L1106.31,546.187C1231.22,421.247 1231.22,218.667 1106.31,93.727L1106.3,93.73Z" style="fill-rule:nonzero;"/>
        </g>
        <g transform="matrix(0.232509,0.232509,-0.232509,0.232509,244.506,319.779)">
            <path d="M684.15,929.91C638.888,929.91 594.505,922.586 551.96,908.156L450.08,1010.04C415.365,1044.83 369.154,1063.94 320.01,1063.94C270.866,1063.94 224.729,1044.83 189.94,1010.04C155.151,975.317 136.038,929.11 136.038,879.966C136.038,830.821 155.155,784.603 189.94,749.826L387.9,551.866C422.689,517.151 468.83,498.034 517.97,498.034C567.185,498.034 613.329,517.151 648.08,551.866C665.002,568.784 678.213,588.413 687.338,609.796C709.971,608.624 731.1,599.175 747.213,583.066L799.873,530.336C785.443,503.527 766.877,478.336 744.283,455.703C619.333,330.753 416.693,330.753 291.743,455.703L93.783,653.743C-31.237,778.693 -31.237,981.263 93.783,1106.29C218.733,1231.24 421.303,1231.24 546.253,1106.29L724.513,928.033C711.22,929.271 697.783,929.939 684.232,929.939L684.15,929.91Z" style="fill-rule:nonzero;"/>
        </g>
    </g>
</svg>
